<?xml version="1.0" encoding="UTF-8"?>
<svg width="18px" height="18px" viewBox="0 0 18 18" version="1.1" xmlns="http://www.w3.org/2000/svg" xmlns:xlink="http://www.w3.org/1999/xlink">
    <!-- Generator: Sketch 60.1 (88133) - https://sketch.com -->
    <title>形状</title>
    <desc>Created with Sketch.</desc>
    <g id="页面-1" stroke="none" stroke-width="1" fill="none" fill-rule="evenodd">
        <g id="首页备份" transform="translate(-103.000000, -400.000000)" fill="#42FFE6">
            <g id="编组-6备份-11" transform="translate(0.000000, 381.000000)">
                <g id="编组-4">
                    <g id="编组-5" transform="translate(103.000000, 0.000000)">
                        <path d="M17.339887,27.8632812 L9.79301201,20.3203125 L9.28715263,19.8144531 C9.04691826,19.5761719 8.66019951,19.5761719 8.41996513,19.8144531 L0.367230759,27.8632812 C0.126996384,28.1035156 -0.00190986569,28.421875 2.13878442e-05,28.7617188 C0.00785575931,29.4492188 0.580121384,29.9980469 1.26762138,29.9980469 L2.09769951,29.9980469 L2.09769951,36.359375 L15.6094183,36.359375 L15.6094183,29.9980469 L16.4570745,29.9980469 C16.7910589,29.9980469 17.105512,29.8671875 17.3418401,29.6308594 C17.5781683,29.3945312 17.7070745,29.0800781 17.7070745,28.7460938 C17.7070745,28.4140625 17.5762151,28.0996094 17.339887,27.8632812 Z M9.94730888,34.953125 L7.75980888,34.953125 L7.75980888,30.96875 L9.94730888,30.96875 L9.94730888,34.953125 Z M14.2031683,28.5917969 L14.2031683,34.953125 L11.1973089,34.953125 L11.1973089,30.5 C11.1973089,30.0683594 10.8476995,29.71875 10.4160589,29.71875 L7.29105888,29.71875 C6.85941826,29.71875 6.50980888,30.0683594 6.50980888,30.5 L6.50980888,34.953125 L3.50394951,34.953125 L3.50394951,28.5917969 L1.62894951,28.5917969 L8.85551201,21.3710938 L9.30668388,21.8222656 L16.0801214,28.5917969 L14.2031683,28.5917969 Z" id="形状"></path>
                    </g>
                </g>
            </g>
        </g>
    </g>
</svg>