<?xml version="1.0" encoding="UTF-8"?>
<svg width="54px" height="54px" viewBox="0 0 54 54" version="1.1" xmlns="http://www.w3.org/2000/svg" xmlns:xlink="http://www.w3.org/1999/xlink">
    <!-- Generator: Sketch 60.1 (88133) - https://sketch.com -->
    <title>shouye</title>
    <desc>Created with Sketch.</desc>
    <g id="新需求" stroke="none" stroke-width="1" fill="none" fill-rule="evenodd">
        <g id="2信息抽取-关键词抽取">
            <g id="shouye" transform="translate(3.000000, 0.000000)">
                <rect id="矩形" fill="#3E8BFF" x="-3" y="0" width="54" height="54"></rect>
                <path d="M33.7463988,28.606818 C33.4086981,28.944408 32.8631816,28.944408 32.5280786,28.606818 L23.9998372,20.0813722 L15.4715957,28.606818 C15.133895,28.944408 14.5883785,28.944408 14.2532755,28.606818 C13.9155748,28.269228 13.9155748,27.7238903 14.2532755,27.3888972 L23.3919759,18.2531925 C23.7296766,17.9156025 24.2725954,17.9156025 24.6102961,18.2531925 L33.7489965,27.3888972 C34.0840995,27.7238903 34.0840995,28.269228 33.7463988,28.606818 Z M16.2457096,29.484552 L16.440537,29.2897886 L23.3841828,22.3484188 C23.7218835,22.0108288 24.2674,22.0108288 24.602503,22.3484188 L31.5461489,29.2897886 L31.7539647,29.4975362 L31.7539647,35.3196653 C31.7539647,35.7948881 31.3695055,36.1818182 30.8915291,36.1818182 L27.446982,36.1818182 C26.9716033,36.1818182 26.5845464,35.797485 26.5845464,35.3196653 L26.5845464,32.7358034 C26.5845464,32.2605805 26.1974894,31.8736505 25.7221107,31.8736505 L22.2775636,31.8736505 C21.8021849,31.8736505 21.415128,32.2579837 21.415128,32.7358034 L21.415128,35.3196653 C21.415128,35.7948881 21.0306687,36.1818182 20.5526924,36.1818182 L17.1081453,36.1818182 C16.6327666,36.1818182 16.2457096,35.797485 16.2457096,35.3196653 L16.2457096,29.720865 L16.2457096,29.484552 Z" id="Shape" fill="#FFFFFF" fill-rule="nonzero"></path>
            </g>
        </g>
    </g>
</svg>